<svg width="88" height="46" viewBox="0 0 88 46" fill="none" xmlns="http://www.w3.org/2000/svg">
<path d="M25.3472 30.4371H29.1857V45.4313H25.3472V30.4371ZM59.6539 34.7554C59.5339 34.6355 58.3344 33.9157 56.4151 33.9157C54.016 33.9157 52.2167 35.5951 52.2167 37.8742C52.2167 40.1533 53.8961 41.8327 56.4151 41.8327C58.2144 41.8327 59.4139 41.1129 59.6539 40.993V45.0714C59.174 45.1914 57.8546 45.5512 56.1752 45.5512C51.8569 45.5512 48.1383 42.6723 48.1383 37.7542C48.1383 33.316 51.497 29.9573 56.1752 29.9573C57.9745 29.9573 59.294 30.4371 59.6539 30.4371V34.7554ZM20.0692 34.7554C19.9493 34.6355 18.7497 33.9157 16.8305 33.9157C14.4314 33.9157 12.6321 35.5951 12.6321 37.8742C12.6321 40.1533 14.3115 41.8327 16.8305 41.8327C18.6298 41.8327 19.8293 41.1129 20.0692 40.993V45.0714C19.5894 45.1914 18.2699 45.5512 16.5906 45.5512C12.3922 45.5512 8.55371 42.6723 8.55371 37.7542C8.55371 33.316 11.9124 29.9573 16.5906 29.9573C18.3899 29.9573 19.7094 30.4371 20.0692 30.4371V34.7554ZM79.4462 37.9942C79.4462 42.3125 76.0875 45.7911 71.5292 45.7911C66.971 45.7911 63.6123 42.3125 63.6123 37.9942C63.6123 33.6758 66.971 30.1972 71.5292 30.1972C76.2074 30.1972 79.4462 33.6758 79.4462 37.9942ZM71.5292 34.0357C69.2501 34.0357 67.5708 35.835 67.5708 37.9942C67.5708 40.1533 69.2501 41.9526 71.5292 41.9526C73.8084 41.9526 75.4877 40.1533 75.4877 37.9942C75.4877 35.835 73.8084 34.0357 71.5292 34.0357ZM43.4601 33.9157C43.4601 33.9157 41.7808 33.4359 40.4613 33.4359C38.9019 33.4359 38.0622 33.9157 38.0622 34.6355C38.0622 35.5951 39.1418 35.835 39.7416 36.0749L40.8212 36.4348C43.2202 37.2744 44.4198 38.9538 44.4198 40.7531C44.4198 44.4716 41.0611 45.7911 38.1822 45.7911C36.143 45.7911 34.2237 45.4313 34.1038 45.4313V41.9526C34.4636 42.0726 36.023 42.5524 37.7024 42.5524C39.6216 42.5524 40.4613 41.9526 40.4613 41.1129C40.4613 40.3932 39.7416 39.9134 38.782 39.6735C38.5421 39.5536 38.1822 39.4336 37.9423 39.4336C35.7831 38.7139 34.1038 37.5143 34.1038 34.9953C34.1038 32.2364 36.2629 30.3171 39.7416 30.3171C41.5409 30.3171 43.3402 30.797 43.4601 30.797V33.9157Z" fill="black"/>
<path d="M4.5955 14.3634C4.59872 14.1104 4.55128 13.8594 4.45597 13.6251C4.36066 13.3908 4.21941 13.1779 4.04054 12.9991C3.86168 12.8202 3.64882 12.679 3.41451 12.5837C3.1802 12.4883 2.92918 12.4409 2.67624 12.4441C2.42331 12.4409 2.17229 12.4883 1.93798 12.5837C1.70367 12.679 1.49081 12.8202 1.31195 12.9991C1.13308 13.1779 0.991831 13.3908 0.89652 13.6251C0.801209 13.8594 0.753767 14.1104 0.75699 14.3634V18.3218C0.753767 18.5748 0.801209 18.8258 0.89652 19.0601C0.991831 19.2944 1.13308 19.5073 1.31195 19.6861C1.49081 19.865 1.70367 20.0063 1.93798 20.1016C2.17229 20.1969 2.42331 20.2443 2.67624 20.2411C2.92918 20.2443 3.1802 20.1969 3.41451 20.1016C3.64882 20.0063 3.86168 19.865 4.04054 19.6861C4.21941 19.5073 4.36066 19.2944 4.45597 19.0601C4.55128 18.8258 4.59872 18.5748 4.5955 18.3218V14.3634Z" fill="black"/>
<path d="M14.9111 9.2054C14.9143 8.95247 14.8669 8.70145 14.7716 8.46714C14.6763 8.23283 14.535 8.01997 14.3561 7.8411C14.1773 7.66224 13.9644 7.52099 13.7301 7.42568C13.4958 7.33036 13.2448 7.28292 12.9918 7.28615C11.9123 7.28615 11.1925 8.12582 11.1925 9.2054V18.3219C11.1893 18.5748 11.2368 18.8258 11.3321 19.0601C11.4274 19.2944 11.5686 19.5073 11.7475 19.6862C11.9264 19.865 12.1392 20.0063 12.3735 20.1016C12.6078 20.1969 12.8589 20.2443 13.1118 20.2411C13.3647 20.2443 13.6157 20.1969 13.8501 20.1016C14.0844 20.0063 14.2972 19.865 14.4761 19.6862C14.655 19.5073 14.7962 19.2944 14.8915 19.0601C14.9868 18.8258 15.0343 18.5748 15.031 18.3219V9.2054H14.9111ZM25.347 2.12815C25.3503 1.87522 25.3028 1.6242 25.2075 1.38989C25.1122 1.15558 24.9709 0.942715 24.7921 0.76385C24.6132 0.584985 24.4004 0.443735 24.166 0.348424C23.9317 0.253114 23.6807 0.205672 23.4278 0.208894C23.1748 0.205672 22.9238 0.253114 22.6895 0.348424C22.4552 0.443735 22.2424 0.584985 22.0635 0.76385C21.8846 0.942715 21.7434 1.15558 21.6481 1.38989C21.5527 1.6242 21.5053 1.87522 21.5085 2.12815V22.0404C21.5053 22.2933 21.5527 22.5444 21.6481 22.7787C21.7434 23.013 21.8846 23.2258 22.0635 23.4047C22.2424 23.5836 22.4552 23.7248 22.6895 23.8201C22.9238 23.9154 23.1748 23.9629 23.4278 23.9597C23.6807 23.9629 23.9317 23.9154 24.166 23.8201C24.4004 23.7248 24.6132 23.5836 24.7921 23.4047C24.9709 23.2258 25.1122 23.013 25.2075 22.7787C25.3028 22.5444 25.3503 22.2933 25.347 22.0404V2.12815ZM35.663 9.2054C35.6663 8.95247 35.6188 8.70145 35.5235 8.46714C35.4282 8.23283 35.2869 8.01997 35.1081 7.8411C34.9292 7.66224 34.7163 7.52099 34.482 7.42568C34.2477 7.33036 33.9967 7.28292 33.7438 7.28615C33.4908 7.28292 33.2398 7.33036 33.0055 7.42568C32.7712 7.52099 32.5583 7.66224 32.3795 7.8411C32.2006 8.01997 32.0594 8.23283 31.9641 8.46714C31.8687 8.70145 31.8213 8.95247 31.8245 9.2054V18.3219C31.8213 18.5748 31.8687 18.8258 31.9641 19.0601C32.0594 19.2944 32.2006 19.5073 32.3795 19.6862C32.5583 19.865 32.7712 20.0063 33.0055 20.1016C33.2398 20.1969 33.4908 20.2443 33.7438 20.2411C33.9967 20.2443 34.2477 20.1969 34.482 20.1016C34.7163 20.0063 34.9292 19.865 35.1081 19.6862C35.2869 19.5073 35.4282 19.2944 35.5235 19.0601C35.6188 18.8258 35.6663 18.5748 35.663 18.3219V9.2054Z" fill="black"/>
<path d="M45.9793 14.3634C45.9825 14.1104 45.9351 13.8594 45.8398 13.6251C45.7444 13.3908 45.6032 13.1779 45.4243 12.9991C45.2455 12.8202 45.0326 12.679 44.7983 12.5837C44.564 12.4883 44.313 12.4409 44.06 12.4441C43.8071 12.4409 43.5561 12.4883 43.3218 12.5837C43.0875 12.679 42.8746 12.8202 42.6957 12.9991C42.5169 13.1779 42.3756 13.3908 42.2803 13.6251C42.185 13.8594 42.1376 14.1104 42.1408 14.3634V18.3218C42.1376 18.5748 42.185 18.8258 42.2803 19.0601C42.3756 19.2944 42.5169 19.5073 42.6957 19.6861C42.8746 19.865 43.0875 20.0063 43.3218 20.1016C43.5561 20.1969 43.8071 20.2443 44.06 20.2411C44.313 20.2443 44.564 20.1969 44.7983 20.1016C45.0326 20.0063 45.2455 19.865 45.4243 19.6861C45.6032 19.5073 45.7444 19.2944 45.8398 19.0601C45.9351 18.8258 45.9825 18.5748 45.9793 18.3218V14.3634Z" fill="black"/>
<path d="M56.2955 9.20537C56.2955 8.69635 56.0933 8.20818 55.7334 7.84825C55.3735 7.48832 54.8853 7.28611 54.3763 7.28611C53.8673 7.28611 53.3791 7.48832 53.0192 7.84825C52.6592 8.20818 52.457 8.69635 52.457 9.20537V18.3218C52.457 18.8308 52.6592 19.319 53.0192 19.6789C53.3791 20.0389 53.8673 20.2411 54.3763 20.2411C54.8853 20.2411 55.3735 20.0389 55.7334 19.6789C56.0933 19.319 56.2955 18.8308 56.2955 18.3218V9.20537ZM66.6115 2.12812C66.6115 1.6191 66.4093 1.13093 66.0494 0.770999C65.6895 0.411069 65.2013 0.208862 64.6923 0.208862C64.1833 0.208862 63.6951 0.411069 63.3352 0.770999C62.9752 1.13093 62.773 1.6191 62.773 2.12812V22.0404C62.773 22.5494 62.9752 23.0376 63.3352 23.3975C63.6951 23.7574 64.1833 23.9596 64.6923 23.9596C65.2013 23.9596 65.6895 23.7574 66.0494 23.3975C66.4093 23.0376 66.6115 22.5494 66.6115 22.0404V2.12812ZM76.9275 9.20537C76.9275 8.95333 76.8779 8.70376 76.7814 8.4709C76.685 8.23805 76.5436 8.02647 76.3654 7.84825C76.1872 7.67003 75.9756 7.52866 75.7427 7.43221C75.5099 7.33576 75.2603 7.28611 75.0083 7.28611C74.7562 7.28611 74.5067 7.33576 74.2738 7.43221C74.0409 7.52866 73.8294 7.67003 73.6512 7.84825C73.4729 8.02647 73.3316 8.23805 73.2351 8.4709C73.1387 8.70376 73.089 8.95333 73.089 9.20537V18.3218C73.089 18.5739 73.1387 18.8234 73.2351 19.0563C73.3316 19.2891 73.4729 19.5007 73.6512 19.6789C73.8294 19.8572 74.0409 19.9985 74.2738 20.095C74.5067 20.1914 74.7562 20.2411 75.0083 20.2411C75.2603 20.2411 75.5099 20.1914 75.7427 20.095C75.9756 19.9985 76.1872 19.8572 76.3654 19.6789C76.5436 19.5007 76.685 19.2891 76.7814 19.0563C76.8779 18.8234 76.9275 18.5739 76.9275 18.3218V9.20537ZM87.2435 14.3634C87.2435 13.8543 87.0413 13.3662 86.6814 13.0062C86.3215 12.6463 85.8333 12.4441 85.3243 12.4441C84.8152 12.4441 84.3271 12.6463 83.9671 13.0062C83.6072 13.3662 83.405 13.8543 83.405 14.3634V18.3218C83.405 18.8308 83.6072 19.319 83.9671 19.6789C84.3271 20.0389 84.8152 20.2411 85.3243 20.2411C85.8333 20.2411 86.3215 20.0389 86.6814 19.6789C87.0413 19.319 87.2435 18.8308 87.2435 18.3218V14.3634Z" fill="black"/>
</svg>
