<svg width="1362" height="283" viewBox="0 0 1362 283" fill="none" xmlns="http://www.w3.org/2000/svg">
<path d="M116.319 171.34C127.981 150.517 134.307 126.859 136.073 101.477C136.073 101.477 138.064 130.116 138.064 160.48C138.064 235.98 124.102 268.765 119.155 282.736C113.467 276.16 66.5552 225.198 66.5552 225.198C87.1194 211.442 104.193 192.99 116.319 171.34Z" fill="black"/>
<path d="M199.292 171.34C187.63 150.517 181.313 126.859 179.529 101.477C179.529 101.477 177.538 130.116 177.538 160.48C177.538 235.98 191.517 268.765 196.456 282.736C202.144 276.16 249.056 225.198 249.056 225.198C228.492 211.442 211.418 192.99 199.292 171.34Z" fill="black"/>
<path d="M0.872314 87.8591L97.5912 0.500117C117.44 26.7354 129.213 59.4175 129.213 94.8489C129.213 122.584 121.422 146.526 108.752 169.107C87.5935 126.859 48.4733 97.5982 0.872314 87.8591Z" fill="black"/>
<path d="M315.23 87.8591L218.52 0.500117C198.671 26.7354 186.898 59.4175 186.898 94.8489C186.898 122.584 194.689 146.526 207.359 169.107C228.518 126.859 267.638 97.5982 315.23 87.8591Z" fill="black"/>
<path d="M1000.56 203.103V130.818H1015.73V190.614H1043.52V203.103H1000.56Z" fill="black"/>
<path d="M1088.4 151.08H1088.11L1079.2 175.014H1097.28L1088.4 151.08ZM1108.22 203.103L1101.6 186.899H1075.04L1068.69 203.103H1053.01L1082.48 130.818H1094.44L1124.22 203.103H1108.22Z" fill="black"/>
<path d="M1251.67 203.103L1225.95 173.084H1225.66V203.103H1210.5V130.818H1225.66V161.931H1225.95L1250.08 130.818H1267.57L1238.44 166.525L1270.84 203.103H1251.67Z" fill="black"/>
<path d="M1328.52 143.211H1299.53V160.233H1325.71L1325.69 172.274H1299.53V190.752H1328.65V203.103H1284.51V130.818H1328.53L1328.52 143.211Z" fill="black"/>
<path d="M1152.95 143.211V164.301H1160.62C1167.61 164.301 1172.12 160.371 1172.12 153.761C1172.12 148.124 1168.66 143.211 1160.62 143.211H1152.95ZM1179.12 203.103C1179.12 203.103 1171.98 191.51 1169.35 187.399C1165.35 181.134 1162.76 178.014 1160.9 176.704H1152.95V203.103H1137.81V130.818H1161.44C1180.75 130.818 1187.58 142.72 1187.58 153.252C1187.58 167.008 1177.44 171.231 1175.03 172.299V172.463C1177.42 174.187 1180.6 178.608 1184.12 184.15C1187.64 189.683 1196.22 203.103 1196.22 203.103H1179.12Z" fill="black"/>
<path d="M958.853 204.447C935.651 204.447 921.637 189.537 921.637 166.826C921.637 143.78 936.065 129.516 958.853 129.516C970.738 129.516 978.624 132.645 979.899 133.11V147.512C979.055 147.004 970.531 141.867 960.947 141.867C946.39 141.867 937.366 152.407 937.366 166.826C937.366 181.926 946.666 192.096 960.947 192.096C970.048 192.096 977.176 187.977 978.701 187.08L983.131 198.638C982.063 199.198 973.366 204.447 958.853 204.447Z" fill="black"/>
<path d="M411.325 203.103V172.929H378.16V203.103H363V130.818H378.16V159.863H411.325V130.818H426.477V203.103H411.325Z" fill="black"/>
<path d="M597.532 203.103V130.818H612.7V190.614H640.496V203.103H597.532Z" fill="black"/>
<path d="M475.457 151.08H475.172L466.26 175.014H484.334L475.457 151.08ZM495.28 203.103L488.652 186.899H462.089L455.754 203.103H440.077L469.553 130.818H481.507L511.276 203.103H495.28Z" fill="black"/>
<path d="M685.33 151.08H685.046L676.125 175.014H694.207L685.33 151.08ZM705.153 203.103L698.525 186.899H671.963L665.628 203.103H649.95L679.418 130.818H691.372L721.149 203.103H705.153Z" fill="black"/>
<path d="M787.841 203.103L750.056 152.27H749.763V203.103H734.75V130.818H751.254L786.78 178.608H787.074V130.818H802.251V203.103H787.841Z" fill="black"/>
<path d="M838.389 143.642V190.312H846.353C863.073 190.312 870.675 181.185 870.675 166.99C870.675 153.605 863.909 143.642 846.353 143.642H838.389ZM845.164 203.103H823.255V130.818H845.164C872.804 130.818 886.559 145.306 886.559 166.99C886.559 189.123 872.295 203.103 845.164 203.103Z" fill="black"/>
<path d="M540.019 143.211V164.301H547.69C554.671 164.301 559.187 160.371 559.187 153.761C559.187 148.124 555.722 143.211 547.69 143.211H540.019ZM566.185 203.103C566.185 203.103 559.041 191.51 556.42 187.399C552.413 181.134 549.827 178.005 547.966 176.704H540.019V203.103H524.876V130.818H548.5C567.823 130.818 574.649 142.72 574.649 153.252C574.649 167.008 564.505 171.231 562.092 172.299V172.455C564.496 174.187 567.659 178.608 571.184 184.141C574.701 189.683 583.285 203.103 583.285 203.103H566.185Z" fill="black"/>
<path d="M1351.25 131.662H1349.99V135.092H1351.21C1352.48 135.092 1353.23 134.524 1353.23 133.352C1353.23 132.274 1352.52 131.662 1351.25 131.662ZM1354.07 141.712L1350.88 136.971H1349.99V141.565H1347.31V129.508H1351.44C1354.21 129.508 1355.9 130.818 1355.9 133.162C1355.9 134.86 1355.05 135.937 1353.6 136.497L1356.84 141.238L1354.07 141.712ZM1351.35 126.267C1346.28 126.267 1342.25 129.74 1342.25 135.937C1342.25 142.082 1346.28 145.556 1351.35 145.556C1356.47 145.556 1360.5 142.082 1360.5 135.937C1360.5 129.74 1356.42 126.267 1351.35 126.267ZM1351.35 146.823C1345.06 146.823 1340.69 142.453 1340.69 135.937C1340.69 129.456 1345.15 125 1351.35 125C1357.64 125 1362 129.413 1362 135.937C1362 142.418 1357.54 146.823 1351.35 146.823Z" fill="black"/>
</svg>
