<svg width="2500" height="2500" viewBox="0 0 2500 2500" fill="none" xmlns="http://www.w3.org/2000/svg">
<g clip-path="url(#clip0_1_2)">
<path fill-rule="evenodd" clip-rule="evenodd" d="M131.617 1423.78L211.018 1066.34H352.765L359.237 1266.02L454.655 1066.34H596.739L517.014 1423.78H414.099L456.691 1231.6L360.949 1423.78H286.995L283.247 1231.6L235.544 1423.78H131.617ZM609.021 1124.6H704.764L717.708 1066.34H621.615L609.021 1124.6ZM638.32 1424.13L541.89 1423.78L600.837 1159.02H697.268L638.32 1424.13ZM1003.61 1159.02H1089.82L1082.33 1191.73C1094.26 1177.07 1108.56 1167.88 1126.63 1161.74C1141.13 1156.91 1156.33 1154.49 1171.61 1154.58L1149.46 1240.79C1144.01 1240.79 1077.23 1227.83 1056.44 1329.73L1034.97 1424.11H943.978L1003.61 1159.02Z" fill="black"/>
<path fill-rule="evenodd" clip-rule="evenodd" d="M953.187 1325.99C953.187 1328.03 922.864 1434.34 789.625 1431.63C611.058 1427.88 657.411 1141.65 860.155 1151.87C975.326 1157.66 969.542 1253.41 968.517 1257.51H869.013C870.375 1253.76 873.786 1214.23 842.088 1214.92C783.14 1216.63 741.222 1362.8 806.304 1364.17C836.29 1365.2 850.272 1330.44 852.995 1326.02H953.187V1325.99ZM1808.14 1432.65C1614.26 1424.47 1672.52 1138.91 1871.52 1148.46C2058.6 1157.66 2005.42 1440.49 1808.14 1432.65ZM1865.04 1210.81C1800.64 1197.86 1752.59 1352.56 1813.95 1365.17C1882.08 1379.49 1927.76 1223.43 1865.04 1210.81Z" fill="black"/>
<path fill-rule="evenodd" clip-rule="evenodd" d="M2171.4 1119.84C2144.8 1119.84 2139.71 1130.06 2135.28 1150.16L2133.55 1159.02H2189.79L2203.77 1094.96H2291.67L2278.04 1159.02H2323.35L2310.08 1220.01H2264.74L2239.87 1336.21C2238.85 1342.68 2236.47 1348.47 2238.85 1355.63C2242.6 1366.18 2280.42 1361.77 2280.42 1361.77L2265.78 1422.43C2265.78 1422.43 2188.76 1431.29 2162.85 1413.22C2151.27 1405.39 2138.66 1389.04 2146.51 1353.94L2176.14 1220.36L2123.33 1220.03L2078.7 1423.79H1983.96L2028.26 1220.03H1979.52L1993.15 1159.03H2040.52C2049.03 1124.96 2056.52 1101.78 2077.65 1084.06C2106.63 1060.55 2181.94 1069.75 2181.94 1069.75L2171.4 1119.84ZM1320.87 1333.15L1500.77 1332.81C1500.77 1332.81 1485.44 1372.68 1542.01 1373.03C1581.2 1373.03 1596.53 1328.39 1543.71 1319.19C1519.52 1314.76 1425.82 1299.08 1436.39 1226.84C1445.26 1167.55 1506.92 1146.76 1574.4 1147.79C1712.41 1149.48 1686.52 1230.6 1688.21 1236.04H1596.2C1596.2 1236.04 1606.08 1201.97 1564.52 1201.97C1526.7 1201.97 1517.48 1236.04 1561.09 1245.24C1614.27 1256.84 1675.27 1259.56 1678.65 1328.05C1679.66 1347.14 1668.44 1436.4 1529.39 1433.69C1401.95 1430.97 1393.11 1370.99 1396.51 1343.06C1373.33 1391.79 1315.39 1435.07 1238.05 1432.34C1044.17 1426.21 1103.12 1138.94 1301.78 1148.84C1392.08 1153.26 1426.51 1221.75 1415.58 1289.22C1413.89 1301.15 1412.87 1302.85 1409.45 1303.88L1320.87 1333.15ZM1294.62 1210.47C1230.88 1197.86 1183.19 1351.88 1244.18 1364.83C1311.67 1378.82 1356.99 1223.09 1294.62 1210.47ZM2376.53 1158.68C2422.53 1158.68 2422.53 1227.17 2376.53 1227.17C2330.52 1227.17 2330.52 1158.68 2376.53 1158.68ZM2376.53 1164.81C2338.02 1164.81 2338.02 1220.7 2376.53 1220.7C2415.36 1220.7 2415.36 1164.81 2376.53 1164.81ZM2382.66 1196.84L2389.47 1210.47H2381.29L2375.84 1196.84H2371.05L2369.03 1211.49H2361.86L2367.66 1175.03H2384.35C2384.35 1175.03 2393.54 1177.42 2392.86 1186.28C2391.86 1196.84 2383.35 1196.84 2382.66 1196.84ZM2380.94 1179.81H2374.15L2372.43 1191.74H2379.24C2379.24 1191.74 2386.05 1192.76 2386.73 1185.94C2386.73 1179.81 2380.94 1179.81 2380.94 1179.81Z" fill="black"/>
</g>
<defs>
<clipPath id="clip0_1_2">
<rect width="2500" height="2500" fill="white"/>
</clipPath>
</defs>
</svg>
