<svg xmlns="http://www.w3.org/2000/svg" xmlns:xlink="http://www.w3.org/1999/xlink" width="1800px" height="695px">
<path fill-rule="evenodd" fill="#1596b3" d="M1799.612,613.253 L1799.612,687.679 L1588.085,687.679 L1588.085,338.071 L1795.205,338.071 L1795.205,412.498 L1679.159,412.498 L1679.159,472.235 L1787.861,472.235 L1787.861,543.723 L1679.159,543.723 L1679.159,613.253 L1799.612,613.253 ZM1430.408,694.534 C1354.023,694.534 1311.913,665.155 1311.913,567.226 L1311.913,338.071 L1402.987,338.071 L1402.987,590.239 C1402.987,624.025 1413.270,632.839 1430.408,632.839 C1447.545,632.839 1457.828,624.025 1457.828,590.239 L1457.828,338.071 L1548.902,338.071 L1548.902,567.226 C1548.902,665.155 1506.792,694.534 1430.408,694.534 ZM1112.126,471.745 L1111.146,471.745 L1111.146,687.679 L1025.948,687.679 L1025.948,338.071 L1127.794,338.071 L1186.552,553.516 L1187.531,553.516 L1187.531,338.071 L1272.730,338.071 L1272.730,687.679 L1172.842,687.679 L1112.126,471.745 ZM781.115,338.071 L988.235,338.071 L988.235,412.498 L872.189,412.498 L872.189,472.235 L980.890,472.235 L980.890,543.723 L872.189,543.723 L872.189,613.253 L992.642,613.253 L992.642,687.679 L781.115,687.679 L781.115,338.071 ZM573.494,687.679 L498.089,338.071 L595.039,338.071 L631.762,601.501 L632.742,601.501 L669.465,338.071 L766.415,338.071 L691.009,687.679 L573.494,687.679 ZM281.655,338.071 L488.776,338.071 L488.776,412.498 L372.729,412.498 L372.729,472.235 L481.431,472.235 L481.431,543.723 L372.729,543.723 L372.729,613.253 L493.182,613.253 L493.182,687.679 L281.655,687.679 L281.655,338.071 ZM145.522,621.087 L145.522,597.584 C145.522,557.923 137.688,547.640 115.654,547.640 L91.661,547.640 L91.661,687.679 L0.587,687.679 L0.587,338.071 L143.074,338.071 C212.604,338.071 239.045,377.243 239.045,431.104 C239.045,477.621 220.928,507.979 179.308,514.344 L179.308,515.323 C223.376,519.241 236.596,547.150 236.596,593.667 L236.596,623.535 C236.596,641.652 236.596,665.155 241.003,672.010 C243.451,675.927 245.410,679.845 251.286,682.782 L251.286,687.679 L154.336,687.679 C145.522,669.072 145.522,635.776 145.522,621.087 ZM109.288,403.684 L91.661,403.684 L91.661,485.945 L109.778,485.945 C135.729,485.945 147.970,469.297 147.970,444.325 C147.970,415.925 136.708,403.684 109.288,403.684 Z"/>
<path fill-rule="evenodd" fill="rgb(255, 255, 255)" d="M1799.027,242.074 L1799.027,305.886 L1617.664,305.886 L1617.664,6.135 L1795.248,6.135 L1795.248,69.947 L1695.751,69.947 L1695.751,121.165 L1788.951,121.165 L1788.951,182.459 L1695.751,182.459 L1695.751,242.074 L1799.027,242.074 ZM1490.029,305.886 L1376.677,305.886 L1376.677,6.135 L1490.029,6.135 C1580.290,6.135 1584.908,77.504 1584.908,156.011 C1584.908,234.517 1580.290,305.886 1490.029,305.886 ZM1470.298,62.390 L1454.764,62.390 L1454.764,249.631 L1470.298,249.631 C1500.525,249.631 1504.303,237.036 1504.303,156.011 C1504.303,74.985 1500.525,62.390 1470.298,62.390 ZM1272.552,253.409 L1210.419,253.409 L1202.442,305.886 L1119.318,305.886 L1192.367,6.135 L1290.605,6.135 L1363.653,305.886 L1280.529,305.886 L1272.552,253.409 ZM1241.905,67.428 L1241.066,67.428 L1219.655,194.634 L1263.316,194.634 L1241.905,67.428 ZM1056.755,279.438 L1055.915,279.438 C1045.420,305.047 1017.712,311.764 991.263,311.764 C911.917,311.764 904.780,255.088 904.780,156.011 C904.780,55.673 924.092,0.257 1016.452,0.257 C1071.869,0.257 1111.332,28.385 1111.332,101.014 L1035.764,101.014 C1035.764,85.900 1034.505,74.145 1031.566,66.169 C1028.627,57.772 1022.750,53.154 1013.514,53.154 C987.905,53.154 985.386,74.985 985.386,156.011 C985.386,237.036 987.905,258.867 1011.834,258.867 C1028.207,258.867 1037.863,248.371 1038.283,195.893 L1010.575,195.893 L1010.575,142.996 L1111.332,142.996 L1111.332,305.886 L1058.434,305.886 L1056.755,279.438 ZM699.899,6.135 L877.483,6.135 L877.483,69.947 L777.986,69.947 L777.986,121.165 L871.186,121.165 L871.186,182.459 L777.986,182.459 L777.986,242.074 L881.262,242.074 L881.262,305.886 L699.899,305.886 L699.899,6.135 ZM525.243,120.746 L524.404,120.746 L524.404,305.886 L451.355,305.886 L451.355,6.135 L538.678,6.135 L589.056,190.856 L589.896,190.856 L589.896,6.135 L662.945,6.135 L662.945,305.886 L577.301,305.886 L525.243,120.746 ZM241.436,6.135 L419.020,6.135 L419.020,69.947 L319.523,69.947 L319.523,121.165 L412.723,121.165 L412.723,182.459 L319.523,182.459 L319.523,242.074 L422.799,242.074 L422.799,305.886 L241.436,305.886 L241.436,6.135 ZM124.716,248.791 L124.716,228.639 C124.716,194.634 117.999,185.818 99.107,185.818 L78.536,185.818 L78.536,305.886 L0.449,305.886 L0.449,6.135 L122.617,6.135 C182.232,6.135 204.902,39.720 204.902,85.900 C204.902,125.783 189.369,151.812 153.684,157.270 L153.684,158.110 C191.468,161.468 202.803,185.398 202.803,225.281 L202.803,250.890 C202.803,266.423 202.803,286.575 206.581,292.452 C208.680,295.811 210.360,299.169 215.397,301.688 L215.397,305.886 L132.273,305.886 C124.716,289.933 124.716,261.385 124.716,248.791 ZM93.649,62.390 L78.536,62.390 L78.536,132.920 L94.069,132.920 C116.320,132.920 126.815,118.646 126.815,97.236 C126.815,72.886 117.159,62.390 93.649,62.390 Z"/>
</svg>