<svg width="2500" height="438" viewBox="0 0 2500 438" fill="none" xmlns="http://www.w3.org/2000/svg">
<g clip-path="url(#clip0_2003_9)">
<path d="M734.301 124.392H632.472V54.6047H927.569V124.392H825.252V382.892H734.293L734.301 124.392ZM965.571 54.6047H1192.57V116.683H1056.53V184.407H1184.26V246.486H1056.53V320.805H1197.95V382.883H965.579L965.571 54.6047ZM1255.6 302.002C1279.07 314.226 1311.83 323.636 1349.49 323.636C1378.34 323.636 1405.72 317.99 1405.72 291.652C1405.72 230.506 1244.35 269.085 1244.35 149.608C1244.35 70.601 1324.55 48.9672 1393 48.9672C1425.78 48.9672 1458.05 53.6638 1481.03 61.1914L1475.16 128.916C1451.68 118.573 1425.28 113.869 1399.36 113.869C1376.38 113.869 1338.24 115.759 1338.24 144.433C1338.24 197.581 1499.61 161.841 1499.61 280.368C1499.61 365.492 1425.28 388.537 1349.49 388.537C1317.7 388.537 1278.1 383.833 1247.78 374.431L1255.6 302.002ZM1686 48.959C1786.91 48.959 1839.55 113.398 1839.55 218.744C1839.55 323.157 1786.04 388.529 1686 388.529C1585.97 388.529 1532.44 323.157 1532.44 218.744C1532.43 113.398 1585.08 48.959 1686 48.959ZM1686 323.636C1735.58 323.636 1755.32 272.841 1755.32 218.752C1755.32 161.841 1735.57 113.869 1686 113.869C1636.42 113.869 1616.68 161.841 1616.68 218.752C1616.67 272.833 1636.42 323.636 1686 323.636ZM2346.43 48.959C2447.35 48.959 2499.99 113.398 2499.99 218.744C2499.99 323.157 2446.46 388.529 2346.43 388.529C2246.4 388.529 2192.88 323.157 2192.88 218.744C2192.88 113.398 2245.53 48.959 2346.43 48.959ZM2346.43 323.636C2396.01 323.636 2415.75 272.841 2415.75 218.752C2415.75 161.841 2396 113.869 2346.43 113.869C2296.85 113.869 2277.11 161.841 2277.11 218.752C2277.11 272.833 2296.85 323.636 2346.43 323.636ZM1885.29 54.6047H2047.64C2108.29 54.6047 2157.67 80.9433 2157.67 137.384C2157.67 181.122 2136.15 210.284 2092.15 220.155V221.096C2121.5 228.624 2135.14 253.551 2152.25 293.525L2185.51 382.883H2090.64L2071.08 323.619C2052.5 267.179 2039.2 253.072 1995.32 253.072H1976.25V382.892H1885.28L1885.29 54.6047ZM1976.26 191.002H2000.21C2029.55 191.002 2066.71 190.053 2066.71 152.902C2066.71 122.329 2034.93 116.683 2000.21 116.683H1976.26V191.002Z" fill="black"/>
<path d="M513.779 219L256.89 437.764L0 219L256.89 0.235596L513.779 219Z" fill="black"/>
<path d="M298.787 303.356L256.873 267.657V49.9331L426.642 194.51L298.787 303.356Z" fill="url(#paint0_linear_2003_9)"/>
<path d="M214.91 303.356L256.824 267.657V49.9331L87.0469 194.51L214.91 303.356Z" fill="url(#paint1_linear_2003_9)"/>
<path d="M388.187 112.045L383.597 107.563L279.737 287.021L270.435 279.106L315.7 50.3127L310.343 45.4016L265.086 274.541L256.931 267.608L248.413 274.855L203.041 45.4016L197.791 50.5686L243.065 279.411L233.853 287.261L129.786 107.695L125.362 112.234L229.107 291.305L214.935 303.373L256.931 339.145L298.936 303.373L284.475 291.058L388.187 112.045Z" fill="white"/>
</g>
<defs>
<linearGradient id="paint0_linear_2003_9" x1="343.159" y1="120.585" x2="233.007" y2="250.012" gradientUnits="userSpaceOnUse">
<stop/>
<stop offset="1" stop-color="white"/>
</linearGradient>
<linearGradient id="paint1_linear_2003_9" x1="170.547" y1="120.598" x2="280.696" y2="250.021" gradientUnits="userSpaceOnUse">
<stop/>
<stop offset="1" stop-color="white"/>
</linearGradient>
<clipPath id="clip0_2003_9">
<rect width="2500" height="438" fill="white"/>
</clipPath>
</defs>
</svg>
